<?xml version="1.0" encoding="utf-8"?>
<!-- Generator: Adobe Illustrator 17.1.0, SVG Export Plug-In . SVG Version: 6.00 Build 0)  -->
<!DOCTYPE svg PUBLIC "-//W3C//DTD SVG 1.1//EN" "http://www.w3.org/Graphics/SVG/1.1/DTD/svg11.dtd">
<svg version="1.1" xmlns="http://www.w3.org/2000/svg" xmlns:xlink="http://www.w3.org/1999/xlink" x="0px" y="0px" width="157px"
	 height="43px" viewBox="0 0 157 43" enable-background="new 0 0 157 43" xml:space="preserve">
<g id="Layer_1">
	<g>
		<g>
			<path fill="#40474F" d="M116.5,22.8c-1.4,0-2.4,0.5-3.2,1.6c-0.7,1-1.1,2.5-1.1,4.3c0,3.8,1.4,5.8,4.3,5.8c1.2,0,2.7-0.3,4.4-0.9
				v3.1c-1.4,0.6-3,0.9-4.7,0.9c-2.5,0-4.4-0.8-5.7-2.3c-1.3-1.5-2-3.7-2-6.6c0-1.8,0.3-3.4,1-4.7c0.6-1.3,1.6-2.4,2.8-3.1
				s2.6-1.1,4.3-1.1c1.7,0,3.3,0.4,5,1.2l-1.2,3c-0.6-0.3-1.3-0.6-1.9-0.8C117.8,22.9,117.2,22.8,116.5,22.8z"/>
			<path fill="#40474F" d="M138.8,28.5c0,2.8-0.8,5-2.4,6.5c-1.6,1.5-3.9,2.3-6.9,2.3h-4.8V20h5.4c2.8,0,5,0.7,6.5,2.2
				C138,23.7,138.8,25.8,138.8,28.5z M135,28.6c0-3.7-1.6-5.6-4.9-5.6h-1.9v11.2h1.6C133.2,34.3,135,32.4,135,28.6z"/>
			<path fill="#40474F" d="M157,37.3h-4.6l-7.4-13.1h-0.1c0.1,2.3,0.2,4,0.2,4.9v8.1h-3.2V20h4.6l7.4,12.9h0.1
				c-0.1-2.2-0.2-3.8-0.2-4.8V20h3.3V37.3z"/>
		</g>
		<g>
			<path fill="#40474F" d="M97.8,26.6c0.1-0.9,0.5-8.2,0.9-10.9c0.2-1.3,0.8-2.6,2-3c1.1-0.5,2.6-0.2,3.4,0.6
				c0.5,0.5,0.7,1.2,0.7,1.9c0.1,0.9,0,1.6-0.2,2.5c-0.3,1.8-1.9,8.8-2.4,10.5c-0.2,0.7-0.5,1.4-1.1,1.9s-1.3,0.5-2,0.2
				c-1-0.4-1.2-1.4-1.3-2.4C97.7,27.1,97.8,26.3,97.8,26.6C97.9,24.8,97.8,26.6,97.8,26.6z M96,35.6c-0.3-1.2,0.4-2.6,1.5-3.3
				c1.2-0.7,3-0.5,4,0.8c0.9,1,0.9,2.7,0.1,3.7c-0.4,0.5-1.1,0.9-1.8,1c-0.4,0.2-0.8,0.2-1.1,0.2C97.2,37.9,96.3,37,96,35.6z"/>
			<path fill="#40474F" d="M80.3,35.6c-1.1-0.9-1.8-2.4-1.7-3.8c0-1.4,0.7-2.8,1.8-3.6c1.3-1,2.6-1,4.3-1c1.6,0,2.3,0,3.9-0.1
				c0.1,0,1.2-0.1,1.2-0.1v-0.1c0-0.3,0-0.6-0.1-0.9c-0.1-0.7-1.6-1.7-3.3-1.5c-0.7,0.1-1.3,0.5-2,0.9c-2.9,1.5-3.9-1.6-3-2.7
				c0.9-1.2,2.4-1.8,3.9-1.9c1.6-0.2,3.2,0.1,4.7,0.5c1.4,0.4,2.8,1,3.7,2.2c1,1.2,1,2.9,0.9,4.4c-0.2,1.7-0.7,3.4-1,5.1
				c-0.1,0.9-0.1,1.6-0.1,2.5c0.1,0.7,0.1,1.6-0.3,2.2c-0.4,0.6-1.1,0.9-1.8,0.9c-0.7,0-1.4-0.3-1.8-0.9c-0.3-0.5-0.6-1-0.9-1.6
				c-2.4,1.1-3.9,1.1-5,1C82.8,37,81.4,36.6,80.3,35.6z M83.5,31.9c-0.1,1,0.8,1.6,1.6,1.7c0.9,0.2,2.1,0,2.9-0.7
				c0.7-0.7,1-1.6,1.2-2.6c-1.2,0.1-3.2,0.1-3.7,0.1C84.9,30.6,83.6,30.8,83.5,31.9z"/>
			<path fill="#40474F" d="M71.2,19.8c0,0-0.2-2-0.1-2.4c0-0.5,0.4-2.3,2.2-2.4c1.8-0.1,2.4,1.4,2.6,2c0.1,0.6,0.1,1.6,0.2,2.4
				c0,0,1.2,14.5,1.2,15.1s0,2.6-2.2,3c-2.2,0.1-2.6-1.6-2.8-2.6L71.2,19.8z"/>
			<path fill="#40474F" d="M69.5,30.3c-0.5,2.6-1.6,4.9-4,6.2c-2.4,1.3-5.5,1.1-7.9-0.1c-1.2-0.7-2.3-1.6-3-2.8
				c-0.8-1.4-1-2.2-1-4.5s1.2-5.3,3.4-6.8c2.2-1.6,5.4-1.6,7.9-0.7c1.3,0.5,2.5,1.4,3.3,2.5c0.9,1.2,1.4,2.7,1.4,4.3
				C69.6,29.3,69.4,30.6,69.5,30.3C69.1,33.2,69.5,30.3,69.5,30.3z M64.8,29.6c0.1-1.2,0.1-2.6-0.5-3.5c-0.7-1-2.2-1.5-3.4-1.1
				c-1.4,0.5-2,1.9-2.3,3.1c-0.3,1.4-0.3,3.1,0.5,4.3c1,1.3,3.1,1.5,4.3,0.4c1-0.9,1.3-2.4,1.5-3.7C64.8,29.2,64.8,29.4,64.8,29.6
				C64.9,28.3,64.8,29.6,64.8,29.6z"/>
			<path fill="#40474F" d="M49.4,21.8c1.1,0.9,1.6,2.3,1.9,3.7c0.3,1.7,0.8,7,0.9,7.9c0.1,0.8,0.1,1.6-0.3,2.3c-0.5,1-2,1.6-3.1,1.1
				c-1.4-0.6-1.5-2.4-1.6-3.6c-0.2-1.8-0.3-3.5-0.5-5.2c-0.2-1.4-0.5-3.2-2.2-3.1c-1.2,0.1-2.2,0.9-2.6,2c-0.2,0.7-0.1,1.4-0.1,2.2
				c0.1,0.9,0.4,4.1,0.5,4.9c0.1,0.6,0.1,1.2,0.1,1.9c-0.2,1.2-1.2,2.2-2.4,2.2c-0.6,0-1.2-0.2-1.6-0.6c-0.5-0.5-0.7-1.2-0.9-1.9
				c-0.3-1.7-1.4-14.3-1.7-16c-0.1-0.8-0.2-1.6,0.1-2.4c0.2-0.5,0.7-1,1.2-1.2c0.6-0.3,1.3-0.3,1.9-0.1c0.7,0.3,1.2,0.8,1.4,1.5
				c0.3,0.8,0.7,5.3,0.7,5.3c0.3-0.3,0.6-0.7,1.1-1C44.4,20.2,47.5,20,49.4,21.8z"/>
			
				<radialGradient id="Body_3_" cx="-147.7918" cy="2381.8196" r="46.5003" gradientTransform="matrix(0.8835 0 0 -0.8911 146.6614 2152.2734)" gradientUnits="userSpaceOnUse">
				<stop  offset="5.000000e-02" style="stop-color:#EFAC00"/>
				<stop  offset="0.1743" style="stop-color:#EB9100"/>
				<stop  offset="0.4" style="stop-color:#E15600"/>
				<stop  offset="0.63" style="stop-color:#C82400"/>
				<stop  offset="0.7155" style="stop-color:#B91200"/>
				<stop  offset="0.8126" style="stop-color:#AE0500"/>
				<stop  offset="0.9" style="stop-color:#AA0000"/>
			</radialGradient>
			<path id="Body_2_" fill="url(#Body_3_)" d="M31.2,27.5c0.2-3-0.9-8.2-1.8-10.7c-0.9-2.6,0.9-5.7,0.9-5.7s-0.9,0.1-2.8,1.8
				c-1.9,1.7-2,4.2-2,4.2c-2.4-5.5-7.2-9.2-9-11.6S16,0,16,0c-3.6,1.6-5.4,5.4-6,10.1c-0.5,4.6-3.5,6.3-3.5,6.3
				c-0.5-4.3-5.4-5.3-5.4-5.3c1,0.3,2.8,5.2,0.9,9c-1.2,2.4-2,5-2,7.6C0,36.1,5.4,43,15.5,43C24.8,43.1,31.2,36.1,31.2,27.5z"/>
			<g>
				<ellipse fill="#333333" cx="21.1" cy="25.6" rx="2.2" ry="3.1"/>
				<ellipse fill="#333333" cx="10" cy="25.6" rx="2.2" ry="3.1"/>
			</g>
			<g>
				<path fill="#333333" d="M15.5,40.7C9.2,40.7,4,35.6,4,29.4c0-0.5,0.4-1,1-1s1,0.4,1,1c0,5.1,4.3,9.4,9.5,9.4s9.5-4.1,9.5-9.4
					c0-0.5,0.4-1,1-1s1,0.4,1,1C27,35.6,21.9,40.7,15.5,40.7z"/>
			</g>
		</g>
	</g>
</g>
<g id="Layer_2">
</g>
<g id="Layer_3">
</g>
<g id="Layer_4">
</g>
</svg>
