<svg viewBox="0 0 48 48">
  <rect fill="#FF9800" width="100%" height="100%"></rect>
  <path fill="#F1F1F1" d="M37.1,20.2h-1.2c-1,0-1.9-0.8-1.9-1.9c0-5.2-4.2-9.4-9.4-9.4h-6.2C13.2,9,9,13.2,9,18.4v11.2 c0,5.2,4.2,9.4,9.4,9.4h11.2c5.2,0,9.4-4.2,9.4-9.4v-7.5C39,21.1,38.2,20.2,37.1,20.2z M18.4,16.5h7.5c1,0,1.9,0.8,1.9,1.9 s-0.8,1.9-1.9,1.9h-7.5c-1,0-1.9-0.8-1.9-1.9S17.3,16.5,18.4,16.5z M29.6,31.5H18.4c-1,0-1.9-0.8-1.9-1.9s0.8-1.9,1.9-1.9h11.2 c1,0,1.9,0.8,1.9,1.9S30.7,31.5,29.6,31.5z"></path>
</svg>
