<svg viewBox="0 0 48 48">
  <rect fill="#DB4437" width="100%" height="100%"></rect>
  <polyline fill="#FFFFFF" points="42.1,21.8 37.7,21.8 37.7,17.4 34.4,17.4 34.4,21.8 30,21.8 30,25.1 34.4,25.1 34.4,29.5 37.7,29.5 37.7,25.1 42.1,25.1"></polyline>
  <path fill="#FFFFFF" d="M16.8,26.1V22h10.3c0.2,0.7,0.3,1.3,0.3,2.3c0,6.3-4.2,10.7-10.6,10.7c-6.1,0-11-4.9-11-11s4.9-11,11-11 c3,0,5.5,1.1,7.4,2.9l-3.1,3c-0.8-0.7-2.2-1.6-4.2-1.6c-3.6,0-6.6,3-6.6,6.7s3,6.7,6.6,6.7c4.2,0,5.8-2.9,6.1-4.6H16.8z"></path>
</svg>
