<svg viewBox="0 0 48 48">
  <rect fill="#CEE3F8" width="100%" height="100%"></rect>
  <circle fill="#FFFFFF" cx="35.5" cy="13.2" r="2.5"></circle>
  <path fill="#FFFFFF" d="M40.2,23.7c0-1.7-1.4-3.1-3.2-3.1c-1,0-1.9,0.5-2.5,1.2c-2.6-1.8-6.4-3-10.6-3s-7.9,1.1-10.6,2.9 c-0.6-0.7-1.5-1.1-2.4-1.1c-1.8,0-3.2,1.4-3.2,3.1c0,1.3,0.8,2.4,1.9,2.9C9.5,27,9.5,27.5,9.5,28c0,5.1,6.5,9.3,14.5,9.3 s14.5-4.1,14.5-9.3c0-0.5-0.1-0.9-0.2-1.4C39.4,26.2,40.2,25,40.2,23.7z"></path>
  <path fill="#000000" d="M41,23.7c0-2.1-1.8-3.9-3.9-3.9c-1,0-1.9,0.4-2.6,1c-2.6-1.6-5.9-2.6-9.4-2.7l1.9-5.9l5.2,1.2c0.1,1.7,1.5,3.1,3.3,3.1 s3.3-1.4,3.3-3.2s-1.5-3.2-3.3-3.2c-1.3,0-2.4,0.8-3,1.9l-5.9-1.4c-0.4-0.1-0.8,0.1-0.9,0.5l-2.3,7c-3.8,0.1-7.3,1-10,2.7 c-0.7-0.6-1.6-0.9-2.5-0.9c-2.2,0-3.9,1.7-3.9,3.9c0,1.4,0.7,2.6,1.8,3.2c-0.1,0.4-0.1,0.7-0.1,1.1c0,2.7,1.6,5.3,4.6,7.2 C16.1,37,19.9,38,23.9,38s7.8-1,10.6-2.8c3-1.9,4.6-4.4,4.6-7.2c0-0.3,0-0.7-0.1-1C40.2,26.3,41,25.1,41,23.7z M35.5,11.5 c1,0,1.8,0.8,1.8,1.7c0,0.9-0.8,1.7-1.8,1.7s-1.8-0.8-1.8-1.7C33.7,12.3,34.5,11.5,35.5,11.5z M8.5,23.7c0-1.3,1.1-2.4,2.4-2.4 c0.5,0,0.9,0.1,1.2,0.3c-1.4,1.1-2.4,2.4-2.9,3.8C8.8,25,8.5,24.4,8.5,23.7z M33.7,33.9c-2.6,1.7-6.1,2.6-9.8,2.6s-7.2-0.9-9.8-2.6 c-2.5-1.6-3.9-3.7-3.9-5.9c0-0.2,0-0.3,0-0.5c0-0.5,0.2-1,0.3-1.4c0.5-1.2,1.3-2.3,2.6-3.3c0.3-0.2,0.6-0.5,0.9-0.7 c0.1-0.1,0.2-0.1,0.3-0.2c2.6-1.6,5.9-2.4,9.5-2.4s7,0.9,9.6,2.5l0.2,0.1c0.4,0.2,0.7,0.5,1,0.8c1.2,1,2,2.1,2.5,3.2 c0.2,0.5,0.3,1,0.3,1.4c0,0.2,0,0.3,0,0.5C37.6,30.2,36.3,32.3,33.7,33.9z M38.6,25.5c-0.5-1.4-1.5-2.7-2.9-3.8 c0.4-0.2,0.8-0.4,1.3-0.4c1.3,0,2.4,1.1,2.4,2.4C39.5,24.4,39.2,25.1,38.6,25.5z"></path>
  <path fill="#FF4500" d="M18.9,23.9c-1.3,0-2.4,1.1-2.4,2.3s1.1,2.3,2.4,2.3s2.3-1,2.3-2.3S20.2,23.9,18.9,23.9z"></path>
  <path fill="#FF4500" d="M29.1,23.9c-1.3,0-2.4,1.1-2.4,2.3c0,1.3,1.1,2.3,2.4,2.3s2.3-1,2.3-2.3S30.4,23.9,29.1,23.9z"></path>
  <path fill="#000000" d="M29.5,31.7c-0.3-0.3-0.8-0.3-1.1,0C27.6,32.6,26.1,33,24,33s-3.6-0.4-4.4-1.3c-0.3-0.3-0.8-0.3-1.1,0c-0.3,0.3-0.3,0.8,0,1 c1.2,1.1,3,1.7,5.5,1.7s4.3-0.6,5.5-1.7C29.8,32.5,29.8,32,29.5,31.7z"></path>
</svg>
