<svg viewBox="0 0 48 48">
  <rect fill="#42678E" width="100%" height="100%"></rect>
  <path fill="#FFFFFF" d="M34.6,33.7h-0.2c-1.7-0.3-2.9-1.5-3.9-2.6c-0.6-0.6-1.4-2.1-2.5-1.9c-1.5,0.2-0.7,2.7-1.4,3.8 c-0.5,0.9-2.6,0.7-4.1,0.6c-4.6-0.5-6.9-2.9-9-5.5c-2.2-2.8-3.9-5.7-5.5-9C7.7,18,7,16.9,7,15.6c0.7-0.6,2-0.4,3.2-0.4 c1,0,2.7-0.2,3.4,0.2c0.5,0.2,0.9,1.4,1.3,2.2c0.8,1.8,1.6,3.1,2.6,4.5c0.4,0.6,1.1,1.8,1.9,1.7c0.8-0.2,0.8-2,0.9-3.2 c0-1.4,0-3.1-0.4-3.8c-0.4-0.7-1.1-0.7-1.8-1.1c0.6-1.2,2.2-1.3,4.1-1.3c1.6,0,3.8-0.2,4.5,0.9c0.6,1.1,0.2,3,0.2,4.4 c0,1.6-0.3,3.3,0.8,4c0.9-0.1,1.3-0.9,1.8-1.6c1.1-1.4,1.8-2.7,2.6-4.5c0.3-0.8,0.7-2.1,1.4-2.3c1-0.4,2.5-0.1,3.9-0.1 c1.2,0,3.2-0.3,3.6,0.5c0.3,0.7-0.6,2.3-0.9,2.8c-1.1,1.7-2.1,2.8-3.3,4.4c-0.5,0.6-1.4,1.6-1.4,2.5c0,0.7,0.8,1.3,1.4,1.8 c1.2,1.1,2.1,2,3.1,3.2c0.4,0.5,1.2,1.5,1.1,2.1C40.8,34.5,36.2,33.2,34.6,33.7z"></path>
</svg>
